<?xml version="1.0" encoding="UTF-8"?>
<!DOCTYPE svg PUBLIC "-//W3C//DTD SVG 1.1//EN" "http://www.w3.org/Graphics/SVG/1.1/DTD/svg11.dtd">
<!-- Creator: CorelDRAW -->
<svg xmlns="http://www.w3.org/2000/svg" xml:space="preserve" width="1056px" height="1056px" style="shape-rendering:geometricPrecision; text-rendering:geometricPrecision; image-rendering:optimizeQuality; fill-rule:evenodd; clip-rule:evenodd"
viewBox="0 0 1056 1056"
 xmlns:xlink="http://www.w3.org/1999/xlink">
 <defs>
  <style type="text/css">
   <![CDATA[
    .str0 {stroke:#0D9488;stroke-width:0.666709}
    .fil1 {fill:none;fill-rule:nonzero}
    .fil0 {fill:#0D9488;fill-rule:nonzero}
   ]]>
  </style>
 </defs>
 <g id="Capa_x0020_1">
  <metadata id="CorelCorpID_0Corel-Layer"/>
  <path class="fil0" d="M656.838 880.28l-241.005 0 -230.151 -712.499 231.168 0 108.715 438.761c8.64983,35.4467 13.3984,61.9049 14.4163,79.3739l4.9183 0c2.03528,-22.0483 7.12328,-49.5239 15.4341,-82.427l105.832 -435.708 223.705 0 -233.034 712.499z"/>
  <path id="1" class="fil1 str0" d="M656.838 880.28l-241.005 0 -230.151 -712.499 231.168 0 108.715 438.761c8.64983,35.4467 13.3984,61.9049 14.4163,79.3739l4.9183 0c2.03528,-22.0483 7.12328,-49.5239 15.4341,-82.427l105.832 -435.708 223.705 0 -233.034 712.499z"/>
 </g>
</svg>
